<?xml version="1.0" standalone="no"?><!DOCTYPE svg PUBLIC "-//W3C//DTD SVG 1.1//EN" "http://www.w3.org/Graphics/SVG/1.1/DTD/svg11.dtd"><svg t="1707562350181" class="icon" viewBox="0 0 1024 1024" version="1.1" xmlns="http://www.w3.org/2000/svg" p-id="4251" xmlns:xlink="http://www.w3.org/1999/xlink" width="200" height="200"><path d="M569.351219 76.8c-5.632-6.656-13.824-11.264-23.04-11.264l-248.832-2.048c-14.848-8.192-29.696-15.872-46.592-20.48-50.176-14.848-103.936-8.192-149.504 16.896-45.568 25.088-78.848 67.072-93.696 118.784C-1.528781 211.456-2.552781 245.76 5.127219 279.04c2.048 8.192 9.216 12.8 16.896 12.8h4.608c9.216-2.048 14.848-11.264 12.8-20.48-6.656-27.648-5.632-56.32 1.536-82.432 11.264-42.496 38.912-76.288 77.824-98.304 37.888-21.504 82.432-26.112 123.392-14.848 3.584 1.024 8.192 2.048 11.264 3.584 0 1.024-1.024 2.048-1.024 3.584L173.063219 338.432c-2.048 9.216-1.024 18.432 4.608 25.088l448.512 614.4c5.632 8.192 13.824 11.264 23.04 11.264 5.632 0 11.264-2.048 16.896-5.632l346.112-254.464c5.632-4.608 10.24-11.264 11.264-18.432 1.024-8.192-1.024-14.848-5.632-21.504L569.351219 76.8z m86.528 843.776L231.431219 343.04l68.608-222.72h14.848c13.824 13.824 24.064 29.696 31.744 48.128-18.432 12.8-29.696 33.28-29.696 55.808 0 36.352 29.696 67.584 67.584 67.584s67.584-29.696 67.584-67.584-29.696-67.584-67.584-67.584h-4.608c-5.632-12.8-12.8-25.088-20.48-36.352l173.568 1.024L957.447219 698.88l-301.568 221.696zM356.871219 204.8c2.048 13.824 3.584 27.648 2.048 42.496-5.632-5.632-9.216-13.824-9.216-21.504 0.512-8.704 4.096-15.36 7.168-20.992z m33.28-12.8c14.848 3.584 26.112 15.872 26.112 31.744 0 14.848-10.24 27.648-24.064 31.744 3.584-20.992 2.56-42.496-2.048-63.488z" fill="#040000" p-id="4252"></path></svg>